# xmcd
#
# Track frame offsets:
#	150
#	19805
#	35267
#	51542
#	70764
#	81501
#	95482
#	107808
#	120399
#	136722
#	146296
#	160678
#	172384
#	187887
#
# Disc length: 2674 seconds
#
# Revision: 1
# Processed by: cddbd v1.5.2PL0 Copyright (c) Steve Scherf et al.
# Submitted via: audiograbber 1.83.01
#
DISCID=bb0a700e
DTITLE=Various Artist - Lovesongs
DYEAR=2006
DGENRE=Love Songs
TTITLE0=Art Garfunkel - Bright Eyes
TTITLE1=Barry White - You're First, The Last, My Everything
TTITLE2=Rightehous Brothers - Unchained Melody
TTITLE3=Dionne Warwick - Heartbreaker
TTITLE4=The Everly Brothers - All I Have To Do Is Dream
TTITLE5=José Feliciano - Light My Fire
TTITLE6=Dean Martin - Everybody Loves Somebody
TTITLE7=Al Martino - Spanish Eyes
TTITLE8=Commodores - Three Times A Lady
TTITLE9=Same Cooke - Wonderful World
TTITLE10=Sonny and Cher - I Got You Baby
TTITLE11=The Platters - Only You
TTITLE12=Tommy James And The Shondells - Crimson And Clover
TTITLE13=Charlie Rich - The Most Beautiful Girl Of The World
EXTD=
EXTT0=
EXTT1=
EXTT2=
EXTT3=
EXTT4=
EXTT5=
EXTT6=
EXTT7=
EXTT8=
EXTT9=
EXTT10=
EXTT11=
EXTT12=
EXTT13=
PLAYORDER=
